<svg width="80" height="80" viewBox="0 0 80 80" fill="none" xmlns="http://www.w3.org/2000/svg">
<path fill-rule="evenodd" clip-rule="evenodd" d="M45.1826 7.05396L44.8599 6.87337C41.7169 5.18786 37.9131 5.24806 34.8173 7.05396L13.8054 19.3109L13.5204 19.484C10.8018 21.2015 9.1427 24.1975 9.1427 27.4286C9.1427 30.7711 10.9182 33.862 13.8054 35.5462L49.2017 56.1935L49.2018 56.1935C49.6934 56.4802 49.9392 56.6236 50.2095 56.6236C50.4799 56.6236 50.7257 56.4802 51.2173 56.1934L55.5323 53.676C56.1913 53.2916 56.5207 53.0994 56.5207 52.8122C56.5207 52.525 56.1912 52.3328 55.5323 51.9485L17.2605 29.6232L17.0979 29.5199C16.4138 29.0481 16 28.2677 16 27.4286C16 26.5249 16.4799 25.6893 17.2605 25.234L38.2724 12.977L38.4891 12.8608C39.5148 12.3571 40.7312 12.3958 41.7275 12.977L62.299 24.977L62.4916 25.0981C63.4307 25.7328 64 26.7953 64 27.9385V52.0615L63.9924 52.2889C63.9174 53.4198 63.2864 54.447 62.299 55.023L41.7275 67.023L41.5108 67.1392C40.4851 67.6429 39.2688 67.6042 38.2724 67.023L17.701 55.023L17.5083 54.9019C16.5692 54.2672 16 53.2047 16 52.0615L15.9999 43.2667C15.9999 42.706 15.9998 42.4256 15.867 42.1943C15.7341 41.963 15.492 41.8217 15.0076 41.5392L10.6466 38.9952C9.97862 38.6056 9.64464 38.4108 9.39367 38.5549C9.1427 38.6991 9.1427 39.0857 9.1427 39.859V52.0615L9.14848 52.4036C9.26544 55.9297 11.1846 59.1603 14.2459 60.946L34.8173 72.946L35.14 73.1266C38.283 74.8121 42.0868 74.7519 45.1826 72.946L65.7541 60.946L66.0467 60.7688C69.0336 58.891 70.8571 55.6054 70.8571 52.0615V27.9385L70.8514 27.5964C70.7345 24.0703 68.8153 20.8397 65.7541 19.054L45.1826 7.05396ZM72.8907 62.2316C72.6203 62.2316 72.3745 62.375 71.8829 62.6618L67.5678 65.1793C66.9089 65.5637 66.5795 65.7559 66.5795 66.043C66.5795 66.3302 66.909 66.5224 67.5679 66.9068L78.4959 73.2818C79.1639 73.6715 79.4979 73.8663 79.7489 73.7222C79.9998 73.578 79.9998 73.1913 79.9998 72.418V67.3696C79.9998 66.8088 79.9998 66.5285 79.867 66.2971C79.7341 66.0658 79.4919 65.9246 79.0076 65.642L73.8985 62.6618C73.4069 62.375 73.161 62.2316 72.8907 62.2316Z" fill="#EC9B3E"/>
</svg>
